# xmcd CD database file
#
# Track frame offsets:
#	183
#	12183
#	33883
#	49733
#	63533
#	74858
#	88308
#	104533
#	118983
#	134158
#
# Disc length: 2004 seconds
#
# Revision: 0
# Processed by: cddbd v1.5.2PL0 Copyright (c) Steve Scherf et al.
# Submitted via: CDex 1.70beta2
#
DISCID=9d07d20a
DTITLE=Vari - Una Rotonda Sul Mare 1
DYEAR=1995
DGENRE=Italian Revival
TTITLE0=Jimmy Fontana - Il Mondo (nuova versione)
TTITLE1=Patty Pravo - Pazza Idea (nuova versione)
TTITLE2=Franco IV e Franco I - Ho scritto t'amo sulla sabbia (nuova versione)
TTITLE3=)Mal - Pensiero d'amore (nuova versione)
TTITLE4=Tony Cucchiara - Se vuoi andare vai (nuova versione)
TTITLE5=Maurizio Vandelli - 29 Settembre (nuova versione)
TTITLE6=Maurizio - Cinque minuti e poi (nuova versione)
TTITLE7=Edoardo Vianello - Pinne fucile ed occhiali (nuova versione)
TTITLE8=Patrick Samson - Soli Si Muore (nuova versione)
TTITLE9=Wilma Goich - Se stasera sono qui (nuova versione)
EXTD=YEAR: 1995
EXTT0=
EXTT1=
EXTT2=
EXTT3=
EXTT4=
EXTT5=
EXTT6=
EXTT7=
EXTT8=
EXTT9=
PLAYORDER=
